<?xml version="1.0" encoding="UTF-8" standalone="no"?>
<!-- Created with Inkscape (http://www.inkscape.org/) -->

<svg
   width="128"
   height="128"
   viewBox="0 0 33.866666 33.866668"
   version="1.1"
   id="svg21766"
   inkscape:version="1.1 (c4e8f9ed74, 2021-05-24)"
   sodipodi:docname="cpp.svg"
   xmlns:inkscape="http://www.inkscape.org/namespaces/inkscape"
   xmlns:sodipodi="http://sodipodi.sourceforge.net/DTD/sodipodi-0.dtd"
   xmlns="http://www.w3.org/2000/svg"
   xmlns:svg="http://www.w3.org/2000/svg">
  <sodipodi:namedview
     id="namedview21768"
     pagecolor="#ffffff"
     bordercolor="#666666"
     borderopacity="1.0"
     inkscape:pageshadow="2"
     inkscape:pageopacity="0.0"
     inkscape:pagecheckerboard="0"
     inkscape:document-units="mm"
     showgrid="false"
     units="px"
     inkscape:zoom="2.1820712"
     inkscape:cx="150.08676"
     inkscape:cy="91.197757"
     inkscape:window-width="1920"
     inkscape:window-height="1010"
     inkscape:window-x="0"
     inkscape:window-y="0"
     inkscape:window-maximized="1"
     inkscape:current-layer="layer1" />
  <defs
     id="defs21763" />
  <g
     inkscape:label="Layer 1"
     inkscape:groupmode="layer"
     id="layer1">
    <g
       id="g20246"
       transform="matrix(0.27615375,0,0,0.27615375,-63.769136,-85.79605)">
      <path
         id="path15404"
         style="fill:#4b97c3;fill-opacity:1;stroke-width:1.98004;stroke-linejoin:round"
         inkscape:transform-center-x="2.625727"
         inkscape:transform-center-y="-3.2098597"
         d="m 341.12468,398.78428 c 0.23112,6.90723 -38.91732,28.79742 -49.07533,28.75144 -9.72803,-0.0815 -49.47995,-22.32158 -49.5214,-29.31504 0.10538,-17.44537 0.28294,-35.01466 0.34321,-52.3826 -0.52691,-9.57817 39.209,-31.14205 48.90261,-31.32062 9.73761,0.0575 49.7157,23.03366 49.72095,31.8675 -0.12335,17.46643 -0.2467,34.93288 -0.37004,52.39932 z"
         sodipodi:nodetypes="ccccccc" />
      <path
         id="path17148"
         style="fill:#367ba2;fill-opacity:1;stroke-width:7.48362;stroke-linejoin:round"
         inkscape:transform-center-x="2.625727"
         inkscape:transform-center-y="-3.2098597"
         d="m 1287.8691,1300.1309 -371.22652,204.5546 c -8.1e-4,0.1332 -10e-4,0.2672 -0.002,0.4004 0.15667,26.432 150.40062,110.4889 187.16802,110.7969 38.3925,0.1738 186.3559,-82.5599 185.4824,-108.666 0.4662,-66.0149 0.9322,-132.0301 1.3985,-198.0449 0,-2.6896 -0.9967,-5.731 -2.8204,-9.041 z"
         transform="scale(0.26458333)" />
      <path
         id="path17447"
         style="fill:#285a77;fill-opacity:1;stroke-width:7.48362;stroke-linejoin:round"
         inkscape:transform-center-x="2.625727"
         inkscape:transform-center-y="-3.2098597"
         d="m 1104.248,1401.3105 -187.60542,103.375 c -8.1e-4,0.1332 -10e-4,0.2672 -0.002,0.4004 0.15667,26.432 150.40062,110.4889 187.16802,110.7969 35.4352,0.1604 164.2067,-70.3026 183.1484,-101.6855 z"
         transform="scale(0.26458333)" />
      <path
         id="path14408"
         style="fill:#ffffff;fill-opacity:1;stroke:none;stroke-width:3.165;stroke-linejoin:round;stroke-opacity:1"
         d="m 291.02924,335.50354 a 35.463183,35.463183 0 0 0 -8.64546,1.27589 35.463183,35.463183 0 0 0 -26.00255,34.04649 35.463183,35.463183 0 0 0 25.74933,34.23875 35.463183,35.463183 0 0 0 39.9247,-15.53498 l -10.04848,-6.17688 a 23.925314,24.019249 0 0 1 -22.89783,11.49956 23.925314,24.019249 0 0 1 -21.48086,-23.12004 23.925314,24.019249 0 0 1 19.95124,-24.46259 23.925314,24.019249 0 0 1 24.5184,11.44324 L 322.1922,352.61 a 35.463183,35.463183 0 0 0 -31.16296,-17.10646 z m 1.13637,35.25986 -0.62477,0.19431 0.49919,0.12039 -0.19585,-0.12039 z" />
      <g
         aria-label="+"
         transform="matrix(0.91134784,0,0,0.91134784,-305.42125,-673.06613)"
         id="text15117"
         style="font-size:40px;line-height:1.25;white-space:pre;shape-inside:url(#rect15119);fill:#ffffff;fill-opacity:1">
        <path
           d="m 682.96258,1143.2778 h -7.28 v -7.28 h -4.76 v 7.28 h -7.28 v 4.76 h 7.28 v 7.28 h 4.76 v -7.28 h 7.28 z"
           style="font-weight:bold;fill:#ffffff;fill-opacity:1"
           id="path15357" />
      </g>
      <g
         aria-label="+"
         transform="matrix(0.91134784,0,0,0.91134784,-285.31285,-673.06613)"
         id="g15380"
         style="font-size:40px;line-height:1.25;white-space:pre;shape-inside:url(#rect15119);fill:#ffffff;fill-opacity:1">
        <path
           d="m 682.96258,1143.2778 h -7.28 v -7.28 h -4.76 v 7.28 h -7.28 v 4.76 h 7.28 v 7.28 h 4.76 v -7.28 h 7.28 z"
           style="font-weight:bold;fill:#ffffff;fill-opacity:1"
           id="path15378" />
      </g>
    </g>
  </g>
</svg>
