<?xml version="1.0" encoding="UTF-8" standalone="no"?>
<!-- Created with Inkscape (http://www.inkscape.org/) -->

<svg
   width="128"
   height="128"
   viewBox="0 0 33.866666 33.866668"
   version="1.1"
   id="svg21227"
   inkscape:version="1.1 (c4e8f9ed74, 2021-05-24)"
   sodipodi:docname="htmlcss.svg"
   xmlns:inkscape="http://www.inkscape.org/namespaces/inkscape"
   xmlns:sodipodi="http://sodipodi.sourceforge.net/DTD/sodipodi-0.dtd"
   xmlns="http://www.w3.org/2000/svg"
   xmlns:svg="http://www.w3.org/2000/svg">
  <sodipodi:namedview
     id="namedview21229"
     pagecolor="#ffffff"
     bordercolor="#666666"
     borderopacity="1.0"
     inkscape:pageshadow="2"
     inkscape:pageopacity="0.0"
     inkscape:pagecheckerboard="0"
     inkscape:document-units="mm"
     showgrid="false"
     units="px"
     inkscape:zoom="3.0859147"
     inkscape:cx="54.278882"
     inkscape:cy="82.633522"
     inkscape:window-width="1920"
     inkscape:window-height="1010"
     inkscape:window-x="0"
     inkscape:window-y="0"
     inkscape:window-maximized="1"
     inkscape:current-layer="layer1" />
  <defs
     id="defs21224" />
  <g
     inkscape:label="Layer 1"
     inkscape:groupmode="layer"
     id="layer1">
    <g
       id="g21292"
       transform="matrix(0.66073534,0,0,0.66073534,-118.42536,-5.8151626)">
      <path
         style="fill:#d62e00;fill-opacity:1;stroke:none;stroke-width:0.130385px;stroke-linecap:butt;stroke-linejoin:miter;stroke-opacity:1"
         d="m 180.21434,16.298536 27.72403,0.06948 -3.23306,27.14504 -10.43017,2.859015 -10.43498,-2.789181 z"
         id="path9386" />
      <path
         style="fill:#a62400;fill-opacity:1;stroke:none;stroke-width:0.130385px;stroke-linecap:butt;stroke-linejoin:miter;stroke-opacity:1"
         d="m 194.10665,18.489947 11.26008,0.187346 -2.12355,22.987007 -9.05927,2.513127 z"
         id="path9616" />
      <path
         style="fill:#ffffff;fill-opacity:1;stroke:none;stroke-width:0.130385px;stroke-linecap:butt;stroke-linejoin:miter;stroke-opacity:1"
         d="m 202.78551,21.941548 -17.34174,-0.04859 0.9479,10.037858 11.9723,0.03967 -0.34579,4.169254 -3.87657,1.017449 -3.90484,-1.00852 -0.27567,-2.502093 -3.49594,-0.02213 0.59204,5.103934 7.13792,1.953149 7.12806,-1.913657 0.87338,-10.09787 -12.56618,-0.08618 -0.39064,-3.368383 13.16115,0.03415 z"
         id="path9501" />
      <path
         id="path10564"
         style="fill:#000000;stroke-width:0.130385"
         d="m 196.11731,9.295079 -0.85489,0.038192 -0.85463,0.038192 -0.0102,2.379279 c -0.006,1.470683 0.0396,2.401514 0.1202,2.437341 v 4.92e-4 c 0.0717,0.03169 0.42375,0.04652 0.78231,0.03262 l 0.65193,-0.02523 0.0377,-1.14087 c 0.0381,-1.154136 0.15217,-1.378057 0.43393,-0.851579 0.0852,0.159128 0.31551,0.51125 0.51187,0.782312 l 0.35703,0.492761 0.50321,-0.780785 c 0.27676,-0.429515 0.56188,-0.761916 0.63359,-0.738508 0.0764,0.02494 0.11563,0.466278 0.0947,1.064985 -0.0399,1.143561 0.0154,1.231884 0.77467,1.234841 0.92535,0.0039 0.8908,0.103034 0.8908,-2.554483 V 9.3065168 l -0.8801,0.00444 -0.8801,0.00444 -0.51951,0.8429212 c -0.28576,0.463583 -0.56354,0.842922 -0.61729,0.842922 -0.0538,0 -0.34031,-0.383893 -0.63665,-0.853108 z m -13.269,0.01094 v 2.390485 c 0,1.314719 0.0419,2.432151 0.093,2.48318 0.051,0.05088 0.3884,0.07538 0.74971,0.05424 l 0.65677,-0.03844 0.0652,-0.782312 0.0652,-0.782312 h 0.84751 0.8475 l 0.0652,0.782312 0.0652,0.782312 h 0.71712 0.71712 l 0.0357,-2.444727 0.0354,-2.4447272 h -0.779 -0.779 l -0.0387,0.8149112 -0.039,0.814905 h -0.84751 -0.8475 l -0.0387,-0.814905 -0.039,-0.8149112 h -0.77595 z m 5.86734,2.563e-4 V 10.088588 10.8709 h 0.78231 0.78231 v 1.618867 c 0,1.173163 0.0449,1.636912 0.16298,1.684566 0.23584,0.09515 1.08454,0.09995 1.32576,0.0074 0.17271,-0.06628 0.20627,-0.341828 0.20627,-1.695009 v -1.615811 h 0.71712 0.71712 v -0.78232 -0.7823127 h -2.34694 z m 12.517,0 v 2.3902287 c 0,1.314719 0.0352,2.425691 0.0782,2.468663 0.043,0.04297 0.93773,0.0673 1.98837,0.05424 l 1.9102,-0.0237 0.039,-0.744875 0.039,-0.744623 -1.21244,-0.0377 -1.21243,-0.03745 -0.0364,-1.662415 -0.0364,-1.6624101 h -0.77849 z" />
    </g>
    <g
       id="g832"
       transform="matrix(0.64639293,0,0,0.64639293,14.872939,12.256873)">
      <g
         id="g21374"
         transform="matrix(0.89222675,0,0,0.89222675,-155.43462,-45.167249)">
        <path
           style="fill:#003dd6;fill-opacity:1;stroke:none;stroke-width:0.130385px;stroke-linecap:butt;stroke-linejoin:miter;stroke-opacity:1"
           d="m 179.95189,58.085371 27.72403,0.06948 -3.23306,27.14504 -10.43017,2.859015 -10.43498,-2.789181 z"
           id="path10681" />
        <path
           style="fill:#002583;fill-opacity:1;stroke:none;stroke-width:0.130385px;stroke-linecap:butt;stroke-linejoin:miter;stroke-opacity:1"
           d="m 193.8442,60.276782 11.26008,0.187346 -2.12355,22.987007 -9.05927,2.513127 z"
           id="path10683" />
        <path
           style="fill:#ffffff;fill-opacity:1;stroke:none;stroke-width:0.143646px;stroke-linecap:butt;stroke-linejoin:miter;stroke-opacity:1"
           d="m 183.76057,62.377675 19.18501,0.02438 0.26229,3.312225 -8.73199,3.489997 7.63645,0.299085 -0.77217,10.98274 -7.35326,2.227512 -7.98351,-2.216181 -0.52278,-5.372983 3.31344,-0.04599 0.43177,2.548982 4.49165,0.971603 4.10789,-0.813376 0.61313,-4.821844 -13.29835,-0.02031 -0.32636,-3.325532 8.64968,-3.782068 -8.98659,0.04447 z"
           id="path10718" />
        <path
           id="path12694"
           style="fill:#000000;stroke-width:0.136115"
           d="m 189.3367,51.195513 -2.21187,0.03722 -2.21187,0.03748 -0.003,2.450068 c -0.002,1.347534 0.017,2.496006 0.042,2.552154 0.026,0.0561 1.02204,0.102085 2.21479,0.102085 h 2.16976 V 55.562883 54.75151 l -1.25906,-0.03934 -1.25906,-0.03908 V 53.788347 52.9036 l 1.25906,-0.03908 1.25906,-0.03908 v -0.815094 z m 6.39766,0.0066 -2.21187,2.65e-4 h -2.21186 l 0.0196,0.578488 c 0.0108,0.318106 0.0261,0.645747 0.034,0.728161 0.008,0.08241 0.32062,0.554319 0.69493,1.048776 0.37432,0.494459 0.68058,0.959542 0.68058,1.033623 0,0.07408 -0.29095,0.153468 -0.64655,0.176257 l -0.64654,0.04148 -0.0426,0.594174 c -0.0235,0.32673 -0.01,0.678932 0.0298,0.782661 0.0574,0.149502 0.51033,0.188486 2.18634,0.188486 h 2.11404 v -0.784521 c 0,-0.738668 -0.0399,-0.834098 -0.68058,-1.625934 -0.37432,-0.462609 -0.68057,-0.87503 -0.68057,-0.91665 0,-0.04164 0.30625,-0.07577 0.68057,-0.07577 h 0.68058 V 52.08686 Z m 1.76949,0 v 0.553499 c 0,0.647783 0.11104,0.88284 0.90575,1.920229 0.32541,0.42478 0.59152,0.834883 0.59152,0.911331 0,0.07645 -0.29095,0.157722 -0.64655,0.180511 l -0.64654,0.04148 -0.0181,0.680574 c -0.01,0.374313 0.01,0.728052 0.0441,0.786117 0.0343,0.05808 0.9918,0.08869 2.12785,0.06806 l 2.06565,-0.03748 0.0383,-0.748631 c 0.0367,-0.719114 0.0112,-0.781798 -0.64655,-1.59164 -0.37662,-0.463694 -0.68483,-0.873777 -0.68483,-0.911331 0,-0.03753 0.29095,-0.08695 0.64655,-0.109796 l 0.64654,-0.04147 0.0404,-0.850718 0.0407,-0.850717 h -2.25227 z" />
      </g>
    </g>
  </g>
</svg>
