<?xml version="1.0" encoding="UTF-8" standalone="no"?>
<!-- Created with Inkscape (http://www.inkscape.org/) -->

<svg
   width="128"
   height="128"
   viewBox="0 0 33.866666 33.866668"
   version="1.1"
   id="svg21101"
   inkscape:version="1.1 (c4e8f9ed74, 2021-05-24)"
   sodipodi:docname="java.svg"
   xmlns:inkscape="http://www.inkscape.org/namespaces/inkscape"
   xmlns:sodipodi="http://sodipodi.sourceforge.net/DTD/sodipodi-0.dtd"
   xmlns="http://www.w3.org/2000/svg"
   xmlns:svg="http://www.w3.org/2000/svg">
  <sodipodi:namedview
     id="namedview21103"
     pagecolor="#ffffff"
     bordercolor="#666666"
     borderopacity="1.0"
     inkscape:pageshadow="2"
     inkscape:pageopacity="0.0"
     inkscape:pagecheckerboard="0"
     inkscape:document-units="mm"
     showgrid="false"
     units="px"
     inkscape:zoom="3.0859147"
     inkscape:cx="4.3747159"
     inkscape:cy="46.663636"
     inkscape:window-width="1920"
     inkscape:window-height="1010"
     inkscape:window-x="0"
     inkscape:window-y="0"
     inkscape:window-maximized="1"
     inkscape:current-layer="layer1" />
  <defs
     id="defs21098" />
  <g
     inkscape:label="Layer 1"
     inkscape:groupmode="layer"
     id="layer1">
    <g
       id="g9281"
       transform="matrix(0.36099957,0,0,0.34431642,6.5309504,-36.120396)">
      <path
         id="path8457"
         style="fill:#0066b6;fill-opacity:1;stroke-width:0.180979"
         d="m 56.286282,156.38036 c -2.11576,6.6e-4 -2.507854,0.0536 -3.891235,0.52297 -2.112918,0.71691 -2.895431,1.13313 -2.895431,1.53944 -3e-6,0.51511 0.347326,0.69106 1.628841,0.82527 1.36928,0.14339 3.599109,0.7081 4.371311,1.10743 0.838155,0.43343 1.993455,1.5561 2.261875,2.19728 0.767937,1.83436 -0.285091,3.98922 -3.493325,7.14737 -1.680086,1.65385 -3.093882,2.83696 -4.918046,4.11654 -0.600782,0.42142 -1.135957,0.88081 -1.189591,1.02061 -0.139718,0.36409 0.05325,0.76548 0.404109,0.84077 0.458314,0.0984 1.532665,-0.16727 3.921207,-0.97048 5.452785,-1.83366 9.159899,-4.40622 10.63036,-7.37578 0.47574,-0.96075 0.584108,-1.41683 0.646989,-2.73213 0.162628,-3.40148 -1.50567,-6.54224 -4.128432,-7.77265 -0.911,-0.42732 -1.196281,-0.46737 -3.348632,-0.46664 z m -39.304576,1.08624 c -0.514414,-0.002 -1.286669,0.0347 -2.463933,0.0982 -9.6561112,0.5203 -13.77877457,2.46737 -12.3687544,5.84203 0.5095769,1.21958 2.3317676,2.2599 5.3934703,3.07836 2.2086702,0.59043 2.6102411,0.65364 6.3944421,1.00976 1.194464,0.11242 2.497791,0.236 2.895946,0.2744 1.281867,0.12378 10.448745,-0.0658 11.944491,-0.24702 0.796308,-0.0964 2.058979,-0.22647 2.805511,-0.28887 4.000297,-0.33415 9.755701,-1.88873 13.301515,-3.59306 2.301621,-1.1063 3.211904,-1.79007 3.131592,-2.35283 -0.04685,-0.32829 -0.171511,-0.38112 -0.869198,-0.36742 -0.447922,0.009 -1.995239,0.22727 -3.438549,0.48525 -5.651326,1.01007 -13.835594,1.4967 -22.585185,1.34255 -7.132915,-0.12567 -11.2577113,-0.53093 -11.2577113,-1.10588 0,-0.51211 3.6151843,-1.93646 6.4786743,-2.55229 1.521392,-0.3272 1.967802,-0.64398 1.74098,-1.23507 -0.105056,-0.27378 -0.245938,-0.38471 -1.103291,-0.38809 z m -2.777609,10.94817 c -1.071817,0 -3.981771,1.10119 -4.8901407,1.85053 -1.4218814,1.17295 -1.0830745,2.85728 0.7875477,3.91449 1.862638,1.0527 5.188308,1.9607 8.631516,2.35696 2.202968,0.25347 8.03919,0.2199 10.690304,-0.0615 3.877633,-0.41157 7.363584,-0.95482 11.657684,-1.81695 4.10981,-0.82512 4.623872,-1.03156 4.259689,-1.71204 -0.217821,-0.40701 -4.042204,-3.08353 -4.405932,-3.08353 -0.157133,0 -0.741677,0.11887 -1.299146,0.26407 -3.011731,0.78446 -8.234072,1.49378 -12.622485,1.71462 -5.258451,0.26463 -12.034745,-0.19014 -13.354741,-0.89658 -0.544761,-0.29157 -0.425217,-0.67087 0.369488,-1.17254 0.398153,-0.25134 0.723469,-0.53106 0.723469,-0.62115 0,-0.40453 -0.24642,-0.73639 -0.547253,-0.73639 z m 1.847431,9.88725 c -0.103494,0.001 -0.220797,0.004 -0.352948,0.008 -1.518079,0.0424 -2.753927,0.48025 -3.681947,1.30379 -0.710743,0.63073 -0.771922,0.75828 -0.844392,1.7601 -0.07261,1.00388 -0.03515,1.13604 0.529167,1.87327 1.531329,2.00058 5.977864,3.21794 13.168704,3.60547 6.525035,0.35165 13.527516,-0.68745 18.236096,-2.70578 0.706882,-0.30301 0.800063,-0.40741 0.749824,-0.84026 -0.04925,-0.42432 -0.429477,-0.71847 -2.681488,-2.07222 l -2.62413,-1.57717 -1.267105,0.25063 c -2.170872,0.42999 -6.998174,1.14947 -8.328692,1.24127 -3.081972,0.21257 -11.321841,-0.63417 -12.164115,-1.25005 -0.253873,-0.18564 -0.266301,-0.2718 -0.07286,-0.50488 0.128307,-0.1546 0.206669,-0.46921 0.174149,-0.69867 -0.04824,-0.33994 -0.115795,-0.40264 -0.840259,-0.39325 z m -7.5886834,6.61665 c -0.6012285,0.005 -1.5885847,0.0535 -2.6432483,0.13332 -5.94475613,0.44967 -9.5196738,1.39347 -10.7998576,2.85151 -0.4524745,0.51535 -0.5379508,0.76586 -0.5379508,1.5751 0,1.16273 0.4328636,1.89099 1.6753496,2.82101 1.7336161,1.29764 6.1385369,2.45183 10.721824,2.80914 0.6967723,0.0543 1.5110936,0.12951 1.8097103,0.16691 2.0007822,0.25054 3.8876732,0.34874 8.5963732,0.44803 v -5.1e-4 c 7.749691,0.1634 14.119616,0.0161 18.731674,-0.43305 0.398153,-0.0388 1.334471,-0.12028 2.081009,-0.18138 1.752727,-0.14357 4.942488,-0.56461 5.97793,-0.78911 0.445008,-0.0965 1.192194,-0.22485 1.660882,-0.28525 1.899266,-0.2448 4.186536,-0.80793 7.201627,-1.77302 3.829754,-1.22586 5.716117,-2.37014 6.117971,-3.7114 0.412692,-1.37745 -0.565936,-3.19447 -1.662946,-3.08767 -0.548788,0.0534 -0.56379,0.0791 -0.56379,0.95964 0,0.89545 -0.0089,0.90943 -0.836641,1.32033 -2.507025,1.24452 -11.752284,2.86906 -19.795175,3.47834 -1.393539,0.10556 -2.940854,0.23074 -3.438549,0.27854 -1.256726,0.12114 -12.852469,0.11964 -14.840439,-0.002 -2.589784,-0.15798 -7.245006,-0.61622 -9.4107954,-0.92604 -3.8060682,-0.54447 -7.3297837,-1.4635 -7.3297837,-1.91151 0,-0.46564 3.5801511,-1.66616 7.3297837,-2.45825 0.6071024,-0.12824 0.7332425,-0.23258 0.781349,-0.64596 0.038529,-0.33111 -0.04227,-0.53074 -0.2454645,-0.60875 -0.041585,-0.016 -0.16324,-0.0252 -0.3477816,-0.0279 v 5.2e-4 c -0.069202,-0.001 -0.1471692,-0.001 -0.2330609,-5.2e-4 z m 54.0147904,5.59397 c -0.32166,0.0217 -0.800995,0.27639 -1.458826,0.76843 -0.938649,0.70208 -4.168536,2.47117 -4.511868,2.47117 -0.07373,0 -0.479282,0.15531 -0.901237,0.3452 -0.86393,0.38881 -3.922688,1.2873 -5.834787,1.71411 -5.158115,1.1513 -17.420759,1.60574 -32.304487,1.19682 -4.728085,-0.12987 -8.752554,-0.22764 -8.9431228,-0.21704 -0.5633376,0.0314 -0.8984985,0.47628 -0.6743779,0.89503 0.142277,0.26584 0.5736061,0.43067 1.691886,0.64751 5.1608987,1.00069 11.8317987,1.75527 17.6077107,1.99161 5.699583,0.23322 11.911171,0.0193 17.555001,-0.60461 8.765315,-0.96893 12.627779,-2.11053 15.791802,-4.66794 1.464458,-1.18368 2.69213,-3.26799 2.45618,-4.17028 -0.0688,-0.26308 -0.223692,-0.3869 -0.473874,-0.37001 z" />
      <path
         style="fill:#c56205;fill-opacity:1;stroke-width:0.180979"
         d="m 32.702594,160.42816 c -0.06065,-0.15805 0.170916,-1.11498 0.514586,-2.12651 0.69531,-2.04653 0.927677,-3.40052 0.747974,-4.35842 -0.07609,-0.40558 -0.741236,-1.46508 -1.821826,-2.90195 -2.785554,-3.70397 -3.603009,-5.87474 -3.615137,-9.60007 -0.0071,-2.16712 -0.0056,-2.17476 0.696986,-3.58207 1.823992,-3.6537 7.301685,-7.64247 15.372804,-11.19423 1.839648,-0.80955 2.564016,-0.85658 2.564016,-0.16646 0,0.34758 -0.553467,0.89382 -2.624201,2.58994 -6.71397,5.49933 -9.229947,8.54413 -9.229947,11.16992 0,1.0053 0.577999,2.34209 1.802623,4.16906 3.15683,4.70957 3.420032,7.83164 0.980298,11.6282 -1.89426,2.94773 -4.975443,5.44815 -5.388176,4.37259 z m -7.167631,-4.33012 c -4.292306,-3.73198 -7.634258,-8.36653 -8.872432,-12.3041 -0.553339,-1.75969 -0.677319,-4.50277 -0.273372,-6.04834 0.624144,-2.38806 2.380489,-5.18289 4.883533,-7.77104 1.85642,-1.91954 3.563408,-3.31675 7.33892,-6.00708 4.948568,-3.5262 6.271073,-4.7729 7.36702,-6.94473 1.252151,-2.48137 1.681948,-4.47363 1.681948,-7.79641 0,-1.55503 0.07348,-2.64771 0.182599,-2.71515 0.68281,-0.422 1.65482,1.0531 2.646205,4.01581 1.225587,3.66262 1.029591,7.21092 -0.579029,10.48272 -1.448157,2.94542 -4.000032,5.6617 -9.669929,10.2929 -4.091713,3.34214 -5.933302,5.16964 -6.7516,6.69998 -1.196386,2.23742 0.349725,9.39731 3.570989,16.53693 0.932243,2.06622 0.990964,2.62117 0.284941,2.69278 -0.333722,0.0338 -0.808625,-0.2638 -1.809793,-1.13427 z"
         id="path8293" />
    </g>
  </g>
</svg>
