<?xml version="1.0" encoding="UTF-8" standalone="no"?>
<!-- Created with Inkscape (http://www.inkscape.org/) -->

<svg
   width="128"
   height="128"
   viewBox="0 0 33.866666 33.866668"
   version="1.1"
   id="svg20968"
   inkscape:version="1.1 (c4e8f9ed74, 2021-05-24)"
   sodipodi:docname="openscad.svg"
   xmlns:inkscape="http://www.inkscape.org/namespaces/inkscape"
   xmlns:sodipodi="http://sodipodi.sourceforge.net/DTD/sodipodi-0.dtd"
   xmlns="http://www.w3.org/2000/svg"
   xmlns:svg="http://www.w3.org/2000/svg">
  <sodipodi:namedview
     id="namedview20970"
     pagecolor="#ffffff"
     bordercolor="#666666"
     borderopacity="1.0"
     inkscape:pageshadow="2"
     inkscape:pageopacity="0.0"
     inkscape:pagecheckerboard="0"
     inkscape:document-units="mm"
     showgrid="false"
     units="px"
     inkscape:zoom="3.0859147"
     inkscape:cx="105.80331"
     inkscape:cy="84.253787"
     inkscape:window-width="1920"
     inkscape:window-height="1010"
     inkscape:window-x="0"
     inkscape:window-y="0"
     inkscape:window-maximized="1"
     inkscape:current-layer="layer1" />
  <defs
     id="defs20965" />
  <g
     inkscape:label="Layer 1"
     inkscape:groupmode="layer"
     id="layer1">
    <g
       id="g8261"
       transform="matrix(0.25889063,0,0,0.25889063,-13.832932,-23.141599)">
      <path
         id="path6908"
         style="fill:#747700;fill-opacity:1;stroke-width:3.46173;stroke-linejoin:round"
         d="m 120.7332,203.73847 a 50.818618,50.198498 0 0 0 50.80465,-49.38614 l -9.12968,4.10415 -0.0264,-0.0424 a 23.750562,14.168497 62.842605 0 1 -1.98903,0.5364 23.750562,14.168497 62.842605 0 1 -18.41851,-11.58017 23.750562,14.168497 62.842605 0 1 -3.2644,-29.37443 l -0.0641,-0.10439 0.37879,-0.24133 a 23.750562,14.168497 62.842605 0 1 0.1695,-0.18603 23.750562,14.168497 62.842605 0 1 3.55482,-2.1854 l 5.83892,-3.7176 a 50.818618,50.198498 0 0 0 -27.85456,-8.21964 50.818618,50.198498 0 0 0 -50.818606,50.19849 50.818618,50.198498 0 0 0 50.818606,50.19849 z m 0.56637,-1.21182 a 27.213726,12.562471 0 0 1 -27.213325,-12.56202 27.213726,12.562471 0 0 1 27.213325,-12.56254 27.213726,12.562471 0 0 1 27.21384,12.56254 27.213726,12.562471 0 0 1 -27.21384,12.56202 z M 87.105275,158.25959 a 16.739378,23.7076 29.052344 0 1 -0.643372,-0.0155 16.739378,23.7076 29.052344 0 1 -5.479251,-1.52187 16.739378,23.7076 29.052344 0 1 -3.120739,-28.85353 16.739378,23.7076 29.052344 0 1 26.146207,-12.59561 16.739378,23.7076 29.052344 0 1 3.12022,28.85353 16.739378,23.7076 29.052344 0 1 -19.372974,14.11904 16.739378,23.7076 29.052344 0 1 -0.650091,0.0139 z" />
      <path
         id="path5843"
         style="fill:#598fe7;fill-opacity:1;stroke-width:11.2394;stroke-linejoin:round"
         d="m 603.17969,396.29102 a 92.825101,64.471046 65.795944 0 0 -18.10938,4.01757 92.825101,64.471046 65.795944 0 0 -12.34765,8.25782 l -338.19532,184.32031 0.0234,0.0449 a 92.825101,64.471046 65.795944 0 0 -17.68359,109.52734 92.825101,64.471046 65.795944 0 0 96.86133,58.23243 92.825101,64.471046 65.795944 0 0 9.15429,-5.50391 L 649.71875,573 a 92.825101,64.471046 65.795944 0 0 11.4668,-3.36133 92.825101,64.471046 65.795944 0 0 20.74609,-111.09765 92.825101,64.471046 65.795944 0 0 -78.75195,-62.25 z"
         transform="scale(0.26458333)" />
      <path
         id="path5160"
         style="fill:#c5cb00;fill-opacity:1;stroke-width:13.0837;stroke-linejoin:round"
         d="M 456.26172,390.58203 A 192.07037,189.72661 0 0 0 264.24414,577.23828 l 34.50586,-15.51172 0.0996,0.16016 a 89.765906,53.550224 62.842605 0 1 7.51758,-2.02734 89.765906,53.550224 62.842605 0 1 69.61328,43.76757 89.765906,53.550224 62.842605 0 1 12.33789,111.02149 l 0.24219,0.39453 -1.43164,0.91211 a 89.765906,53.550224 62.842605 0 1 -0.64063,0.70312 89.765906,53.550224 62.842605 0 1 -13.43555,8.25977 l -22.06835,14.05078 A 192.07037,189.72661 0 0 0 456.26172,770.03516 192.07037,189.72661 0 0 0 648.33203,580.30859 192.07037,189.72661 0 0 0 456.26172,390.58203 Z m -2.14063,4.58008 A 102.85503,47.480206 0 0 1 556.97461,442.64062 102.85503,47.480206 0 0 1 454.12109,490.12109 102.85503,47.480206 0 0 1 351.26562,442.64062 102.85503,47.480206 0 0 1 454.12109,395.16211 Z M 583.35938,562.4707 a 63.266943,89.603528 29.052344 0 1 2.43164,0.0586 63.266943,89.603528 29.052344 0 1 20.70898,5.75195 63.266943,89.603528 29.052344 0 1 11.79492,109.05273 63.266943,89.603528 29.052344 0 1 -98.82031,47.60547 63.266943,89.603528 29.052344 0 1 -11.79297,-109.05273 63.266943,89.603528 29.052344 0 1 73.2207,-53.36328 63.266943,89.603528 29.052344 0 1 2.45704,-0.0527 z"
         transform="scale(0.26458333)" />
    </g>
  </g>
</svg>
