<?xml version="1.0" encoding="UTF-8" standalone="no"?>
<!-- Created with Inkscape (http://www.inkscape.org/) -->

<svg
   width="128"
   height="128"
   viewBox="0 0 33.866666 33.866668"
   version="1.1"
   id="svg20366"
   inkscape:version="1.1 (c4e8f9ed74, 2021-05-24)"
   sodipodi:docname="python.svg"
   xmlns:inkscape="http://www.inkscape.org/namespaces/inkscape"
   xmlns:sodipodi="http://sodipodi.sourceforge.net/DTD/sodipodi-0.dtd"
   xmlns="http://www.w3.org/2000/svg"
   xmlns:svg="http://www.w3.org/2000/svg">
  <sodipodi:namedview
     id="namedview20368"
     pagecolor="#ffffff"
     bordercolor="#666666"
     borderopacity="1.0"
     inkscape:pageshadow="2"
     inkscape:pageopacity="0.0"
     inkscape:pagecheckerboard="0"
     inkscape:document-units="mm"
     showgrid="false"
     units="px"
     inkscape:zoom="3.0859147"
     inkscape:cx="38.076231"
     inkscape:cy="85.549999"
     inkscape:window-width="1920"
     inkscape:window-height="1010"
     inkscape:window-x="0"
     inkscape:window-y="0"
     inkscape:window-maximized="1"
     inkscape:current-layer="layer1" />
  <defs
     id="defs20363" />
  <g
     inkscape:label="Layer 1"
     inkscape:groupmode="layer"
     id="layer1">
    <g
       id="g3564"
       transform="matrix(1.0681997,0,0,1.0681997,-139.67851,-15.218436)">
      <path
         style="fill:#0409f0;fill-opacity:1;stroke:none;stroke-width:0.126626"
         d="m 138.60321,37.345039 c 0,-2.484356 -0.52522,-5.985276 2.11279,-7.301876 3.62181,-1.807762 11.78935,2.223706 12.51689,-3.922451 0.21828,-1.844273 0.0356,-3.818593 0.0356,-5.676671 0,-1.210163 0.0471,-2.378525 -0.78658,-3.342399 -2.08308,-2.408201 -6.90658,-2.085145 -9.65308,-1.502125 -1.17471,0.249257 -2.60854,0.806604 -3.16011,2.006188 -0.23961,0.520964 -0.19549,1.116112 -0.19549,1.677199 0,0.607017 -0.24981,2.007735 0.12776,2.502509 0.30325,0.397496 1.30446,0.206811 1.73646,0.206811 h 5.09555 v 0.903107 h -8.07831 c -1.5908,0 -3.22846,-0.03909 -4.46258,1.184876 -2.70809,2.686355 -2.57325,10.325594 0.48557,12.676794 1.16228,0.893353 2.86469,0.588038 4.22558,0.588038 m 3.97701,-17.215537 c -1.52742,0.187072 -1.81004,-2.342144 -0.24844,-2.504574 1.56831,-0.163204 1.8042,2.314018 0.24844,2.504574 z"
         id="path1450" />
      <path
         style="fill:#ffca2f;fill-opacity:1;stroke:none;stroke-width:0.126626"
         d="m 154.4485,22.864627 c 0,2.484356 0.52522,5.985275 -2.11279,7.301876 -3.62181,1.807762 -11.78935,-2.223707 -12.51689,3.92245 -0.21828,1.844273 -0.0356,3.818594 -0.0356,5.676671 0,1.210163 -0.0471,2.378525 0.78658,3.342398 2.08308,2.408199 6.90658,2.085145 9.65308,1.502125 1.17471,-0.249258 2.60854,-0.806603 3.16011,-2.006187 0.23961,-0.520964 0.19549,-1.116111 0.19549,-1.677198 0,-0.607017 0.24981,-2.007736 -0.12776,-2.502509 -0.30325,-0.397496 -1.30446,-0.206812 -1.73646,-0.206812 h -5.09555 v -0.903106 h 8.07831 c 1.5908,0 3.22846,0.03909 4.46258,-1.184876 2.70809,-2.686356 2.57325,-10.325594 -0.48557,-12.676793 -1.16228,-0.893354 -2.86469,-0.588039 -4.22558,-0.588039 m -3.97701,17.215536 c 1.52742,-0.187072 1.81004,2.342143 0.24844,2.504573 -1.56831,0.163205 -1.8042,-2.314017 -0.24844,-2.504573 z"
         id="path1016" />
    </g>
  </g>
</svg>
