<?xml version="1.0" encoding="UTF-8" standalone="no"?>
<!-- Created with Inkscape (http://www.inkscape.org/) -->

<svg
   width="128"
   height="128"
   viewBox="0 0 33.866666 33.866668"
   version="1.1"
   id="svg918"
   inkscape:version="1.1 (c4e8f9ed74, 2021-05-24)"
   sodipodi:docname="dark_theme.svg"
   xmlns:inkscape="http://www.inkscape.org/namespaces/inkscape"
   xmlns:sodipodi="http://sodipodi.sourceforge.net/DTD/sodipodi-0.dtd"
   xmlns="http://www.w3.org/2000/svg"
   xmlns:svg="http://www.w3.org/2000/svg">
  <sodipodi:namedview
     id="namedview920"
     pagecolor="#ffffff"
     bordercolor="#666666"
     borderopacity="1.0"
     inkscape:pageshadow="2"
     inkscape:pageopacity="0.0"
     inkscape:pagecheckerboard="0"
     inkscape:document-units="mm"
     showgrid="false"
     units="px"
     inkscape:zoom="1.5429574"
     inkscape:cx="-49.256059"
     inkscape:cy="-25.924241"
     inkscape:window-width="1920"
     inkscape:window-height="1010"
     inkscape:window-x="0"
     inkscape:window-y="0"
     inkscape:window-maximized="1"
     inkscape:current-layer="layer1" />
  <defs
     id="defs915" />
  <g
     inkscape:label="Layer 1"
     inkscape:groupmode="layer"
     id="layer1">
    <path
       id="path1975"
       style="fill:#000000;fill-opacity:1;stroke:none;stroke-width:1.31177;stroke-linejoin:round"
       inkscape:transform-center-x="-0.02701827"
       inkscape:transform-center-y="-1.4767144"
       d="m 17.174402,1.1276693 -2.502147,5.113123 a 10.660856,10.906181 0 0 1 2.679125,-0.382506 10.660856,10.906181 0 0 1 2.184425,0.2350786 z M 8.0543678,4.1256517 9.0586557,10.146905 A 10.660856,10.906181 0 0 1 13.239291,6.9198822 Z m 18.0869642,0.016076 -4.949507,2.6562862 a 10.660856,10.906181 0 0 1 2.393148,1.2897715 10.660856,10.906181 0 0 1 1.639157,1.4955432 z m -8.906254,4.2690778 a 8.4627316,8.4709917 0 0 0 -8.462677,8.4712005 8.4627316,8.4709917 0 0 0 8.462677,8.47091 8.4627316,8.4709917 0 0 0 8.462968,-8.47091 8.4627316,8.4709917 0 0 0 -8.462968,-8.4712005 z m -8.9492295,2.6792705 -5.8043491,0.82853 4.2519874,4.288336 a 10.660856,10.906181 0 0 1 1.5523617,-5.116866 z m 18.2805155,0.197721 a 10.660856,10.906181 0 0 1 1.401225,4.526291 l 3.778918,-3.725353 z m -19.8292194,6.162939 -4.2871058,4.26764 5.8287847,0.871636 A 10.660856,10.906181 0 0 1 6.7371446,17.450736 Z m 21.2301604,0.54919 a 10.660856,10.906181 0 0 1 -1.445891,4.511628 l 5.193909,-0.767315 z M 9.0176414,23.523147 7.9729005,29.548426 13.202206,26.77431 A 10.660856,10.906181 0 0 1 9.0176414,23.523147 Z m 16.1497476,0.620746 a 10.660856,10.906181 0 0 1 -4.072203,2.802558 l 4.964402,2.706863 z M 14.588266,27.4442 17.07355,32.607042 19.493669,27.601401 A 10.660856,10.906181 0 0 1 14.588266,27.4442 Z" />
  </g>
</svg>
