<?xml version="1.0" encoding="UTF-8" standalone="no"?>
<!-- Created with Inkscape (http://www.inkscape.org/) -->

<svg
   width="128"
   height="128"
   viewBox="0 0 33.866666 33.866668"
   version="1.1"
   id="svg20780"
   inkscape:version="1.1 (c4e8f9ed74, 2021-05-24)"
   sodipodi:docname="rust.svg"
   xmlns:inkscape="http://www.inkscape.org/namespaces/inkscape"
   xmlns:sodipodi="http://sodipodi.sourceforge.net/DTD/sodipodi-0.dtd"
   xmlns="http://www.w3.org/2000/svg"
   xmlns:svg="http://www.w3.org/2000/svg">
  <sodipodi:namedview
     id="namedview20782"
     pagecolor="#ffffff"
     bordercolor="#666666"
     borderopacity="1.0"
     inkscape:pageshadow="2"
     inkscape:pageopacity="0.0"
     inkscape:pagecheckerboard="0"
     inkscape:document-units="mm"
     showgrid="false"
     units="px"
     inkscape:zoom="3.0859147"
     inkscape:cx="106.77547"
     inkscape:cy="68.699242"
     inkscape:window-width="1920"
     inkscape:window-height="1010"
     inkscape:window-x="0"
     inkscape:window-y="0"
     inkscape:window-maximized="1"
     inkscape:current-layer="layer1" />
  <defs
     id="defs20777" />
  <g
     inkscape:label="Layer 1"
     inkscape:groupmode="layer"
     id="layer1">
    <g
       id="g9339"
       transform="translate(-125.69512,-51.989147)">
      <ellipse
         style="fill:#ffffff;fill-opacity:1;stroke-width:2.22198;stroke-linejoin:round"
         id="path2432"
         cx="142.79666"
         cy="68.898155"
         rx="13.789609"
         ry="14.271463" />
      <path
         style="fill:#000000;fill-opacity:1;stroke-width:0.188142"
         d="m 142.22986,84.73485 c -0.51976,-0.829101 -1.56255,-0.946196 -2.11962,-0.238002 -0.49818,0.633338 -0.73657,0.606225 -0.892,-0.101444 -0.0942,-0.428971 -0.29829,-0.653113 -0.77662,-0.852972 -0.597,-0.249442 -0.69174,-0.240533 -1.18616,0.11152 -0.73067,0.520282 -0.94959,0.481471 -0.94959,-0.168371 0,-1.036547 -1.04658,-1.57723 -2.0493,-1.058704 l -0.58469,0.302354 v -0.816087 c 0,-0.682532 -0.0894,-0.88217 -0.54614,-1.219866 -0.45626,-0.337333 -0.64957,-0.374118 -1.17465,-0.223523 -0.34568,0.09914 -0.65984,0.180253 -0.69814,0.180253 -0.0383,0 -0.0194,-0.359825 0.0422,-0.799604 0.15376,-1.09918 -0.30125,-1.646241 -1.36924,-1.646241 -0.84262,0 -0.90842,-0.126226 -0.48884,-0.937606 0.25315,-0.489542 0.24871,-0.598218 -0.0454,-1.110642 -0.2407,-0.419393 -0.51102,-0.59927 -1.03318,-0.687488 -0.38895,-0.06571 -0.70719,-0.162462 -0.70719,-0.215005 0,-0.05255 0.16895,-0.332775 0.37543,-0.622757 0.58319,-0.81901 0.33593,-1.66704 -0.59237,-2.031694 -0.39808,-0.156361 -0.72376,-0.341365 -0.72376,-0.411108 0,-0.06976 0.21165,-0.325648 0.47035,-0.568681 0.73521,-0.690696 0.6476,-1.559275 -0.21651,-2.146456 l -0.68688,-0.466741 0.68688,-0.405265 c 0.58795,-0.346903 0.68686,-0.502709 0.68686,-1.08192 0,-0.470619 -0.14746,-0.830579 -0.48431,-1.182174 l -0.48432,-0.50552 0.70925,-0.351415 c 0.96419,-0.477731 1.20747,-1.217467 0.64886,-1.973021 -0.48457,-0.655418 -0.37665,-0.918312 0.37696,-0.918312 0.4228,0 0.64303,-0.142955 0.91878,-0.596392 0.33051,-0.543494 0.33861,-0.654003 0.0913,-1.245902 -0.14925,-0.357229 -0.27138,-0.6815 -0.27138,-0.720602 0,-0.0391 0.33252,-0.07109 0.73892,-0.07109 1.0256,0 1.56606,-0.672926 1.39577,-1.737886 l -0.11999,-0.750306 0.74181,0.125328 c 1.05841,0.178818 1.75891,-0.384166 1.75891,-1.413635 0,-0.838516 0.006,-0.842444 0.76191,-0.451868 0.49299,0.254934 0.61567,0.255713 1.09671,0.007 0.58515,-0.302598 0.77537,-0.632344 0.77537,-1.344173 0,-0.55933 0.17792,-0.571085 0.8339,-0.05509 0.74023,0.582265 1.58828,0.306587 2.04821,-0.665814 l 0.3422,-0.723488 0.59852,0.553019 c 0.80631,0.745027 1.65412,0.629326 2.21867,-0.302784 l 0.39074,-0.645117 0.39555,0.692153 c 0.33729,0.590183 0.49255,0.692153 1.05383,0.692153 0.45741,0 0.81867,-0.153684 1.18398,-0.503675 0.28915,-0.277021 0.55028,-0.467516 0.5803,-0.42332 0.03,0.04419 0.19512,0.389995 0.36688,0.768444 0.40907,0.901269 1.20713,1.119573 2.00803,0.54928 0.3018,-0.214901 0.59172,-0.390729 0.64425,-0.390729 0.0525,0 0.15306,0.34049 0.22336,0.756645 0.0977,0.578208 0.25688,0.823377 0.67504,1.039614 0.48788,0.252293 0.60738,0.251851 1.10229,-0.0041 0.83192,-0.430205 0.95005,-0.363316 0.95005,0.537957 0,1.066902 0.55449,1.49891 1.69069,1.317226 0.41533,-0.06642 0.75516,-0.08821 0.75516,-0.04843 0,0.03978 -0.0811,0.355152 -0.18025,0.700832 -0.1506,0.525078 -0.11381,0.718382 0.22352,1.174647 0.3228,0.436626 0.54759,0.546138 1.12096,0.546138 0.75169,0 0.85086,0.151247 0.51305,0.782461 -0.43073,0.804812 0.22408,1.85153 1.15828,1.85153 0.64718,0 0.68856,0.219074 0.17707,0.937396 -0.51864,0.728369 -0.21982,1.600683 0.67665,1.975253 0.76368,0.319087 0.79658,0.514859 0.15695,0.933963 -0.39548,0.259131 -0.47077,0.438208 -0.42332,1.006895 0.0453,0.542798 0.18779,0.77325 0.66193,1.070482 0.33232,0.208326 0.60748,0.433908 0.61147,0.501295 0.004,0.06739 -0.28908,0.297359 -0.65125,0.511047 -0.5448,0.321434 -0.6585,0.497663 -0.6585,1.02057 0,0.430923 0.14967,0.772656 0.47035,1.073923 0.61461,0.577385 0.59522,0.682178 -0.1731,0.935745 -0.91044,0.300471 -1.1946,1.137372 -0.67281,1.981626 0.20655,0.334219 0.37556,0.653739 0.37556,0.710036 0,0.05632 -0.33093,0.158274 -0.73539,0.226603 -0.92548,0.156361 -1.30837,0.86575 -0.97832,1.812536 0.30422,0.872698 0.27877,0.918435 -0.51121,0.918435 -1.0653,0 -1.57471,0.601915 -1.35056,1.595797 0.0925,0.409978 0.13841,0.775129 0.10209,0.811444 -0.0363,0.03634 -0.38805,-0.0229 -0.78163,-0.131551 -0.62996,-0.17394 -0.76716,-0.149144 -1.1465,0.207225 -0.30347,0.285097 -0.43089,0.617659 -0.43089,1.12458 0,0.789976 -0.0457,0.815426 -0.91843,0.511208 -0.94679,-0.330059 -1.65618,0.05283 -1.81254,0.978309 -0.14002,0.828795 -0.30288,0.892153 -0.96152,0.374068 -0.37033,-0.291305 -0.57639,-0.327762 -1.06322,-0.188147 -0.33212,0.09525 -0.61902,0.173186 -0.63754,0.173186 -0.0186,0 -0.13149,0.296324 -0.25102,0.658496 -0.25874,0.783982 -0.36162,0.804554 -0.94071,0.188147 -0.30126,-0.320687 -0.643,-0.470357 -1.07392,-0.470357 -0.52291,0 -0.69914,0.113703 -1.02057,0.658497 -0.21369,0.362171 -0.44366,0.655239 -0.51105,0.65125 -0.0674,-0.0043 -0.29297,-0.279145 -0.50129,-0.611465 z m 2.82314,-3.808299 c 1.76956,-0.365514 2.67749,-0.744816 2.79349,-1.167024 0.0503,-0.182843 0.19083,-0.772733 0.31244,-1.310871 0.31014,-1.372458 0.49819,-1.485243 2.01147,-1.206411 1.23212,0.227029 1.24383,0.225137 1.778,-0.286619 0.29573,-0.283326 0.53769,-0.583974 0.53769,-0.668089 0,-0.08412 -1.26118,-0.152941 -2.80264,-0.152941 h -2.80264 l -0.56868,-0.647688 c -0.41646,-0.474324 -0.65461,-1.040884 -0.88971,-2.116605 -0.65467,-2.995463 -0.95462,-3.256258 -3.74516,-3.256258 h -1.79669 v 1.128853 1.128852 h 1.59921 1.59921 v 1.878397 1.878398 l -5.11935,0.05006 -5.11935,0.05006 0.5569,0.609069 0.5569,0.609068 1.2548,-0.221369 c 1.57296,-0.277488 1.73344,-0.163365 2.03769,1.449085 0.12559,0.665622 0.32513,1.286544 0.44342,1.379825 0.28442,0.224277 1.91423,0.750895 2.95729,0.955539 1.31642,0.258275 2.89659,0.228395 4.40571,-0.08333 z m -9.0912,-0.964201 c 0.18924,-0.171258 0.34407,-0.467576 0.34407,-0.658496 0,-0.417857 -0.64159,-1.099691 -1.03478,-1.099691 -0.15522,0 -0.45154,0.169324 -0.6585,0.376279 -0.20696,0.206955 -0.37629,0.50328 -0.37629,0.658497 0,0.379202 0.676,1.034783 1.06701,1.034783 0.17293,0 0.46926,-0.140113 0.65849,-0.311372 z m 14.79339,0.0856 c 0.12417,-0.12417 0.22577,-0.445895 0.22577,-0.714935 0,-0.269048 -0.1016,-0.590773 -0.22577,-0.714943 -0.12418,-0.124177 -0.4459,-0.225771 -0.71494,-0.225771 -0.26905,0 -0.59077,0.101594 -0.71495,0.225771 -0.12417,0.12417 -0.22577,0.445895 -0.22577,0.714943 0,0.26904 0.1016,0.590765 0.22577,0.714935 0.12418,0.124178 0.4459,0.225771 0.71495,0.225771 0.26904,0 0.59076,-0.101593 0.71494,-0.225771 z M 134.42444,68.420765 v -3.950986 h -0.83829 -0.83829 l 0.25345,0.718364 c 0.34185,0.968911 0.15079,1.241903 -1.34338,1.919388 l -1.23912,0.561847 0.10437,1.833795 c 0.0574,1.008587 0.19461,2.066621 0.30488,2.351187 0.19819,0.511396 0.22019,0.51739 1.89845,0.51739 h 1.69793 z m 18.49589,3.569501 c 0.33668,-0.264834 0.52356,-0.638782 0.61116,-1.222924 0.12126,-0.80865 0.15136,-0.841439 0.77229,-0.841439 h 0.64611 l -0.056,-1.141241 -0.056,-1.141242 -1.21893,-0.5387 c -0.67041,-0.296285 -1.29221,-0.702934 -1.38178,-0.903666 -0.11766,-0.263691 0.0188,-0.776412 0.49187,-1.847724 0.6321,-1.431529 0.64409,-1.50121 0.347,-2.016794 -0.54621,-0.947915 -2.30318,-2.757988 -3.40018,-3.502941 -1.20604,-0.819018 -2.95237,-1.600624 -4.0264,-1.802114 -0.67505,-0.12664 -0.77798,-0.08101 -1.59895,0.708798 -1.27987,1.231305 -1.39795,1.237051 -2.57353,0.12523 -0.97365,-0.920834 -1.04287,-0.952651 -1.79589,-0.825428 -1.15385,0.19494 -3.88371,1.63589 -5.05896,2.670354 l -1.02524,0.90243 7.04579,0.09407 7.0458,0.09407 0.9407,0.499847 c 1.55868,0.828202 2.54609,2.188003 2.5358,3.492131 -0.007,0.870946 -0.65654,2.0271 -1.56648,2.787704 l -0.86082,0.719565 0.70855,0.768689 c 0.4448,0.482549 0.80104,1.117781 0.95703,1.706499 0.13665,0.515795 0.41659,1.085973 0.62207,1.26706 0.49769,0.438599 1.2991,0.416506 1.895,-0.05224 z m -8.14806,-5.320435 c 0.53593,-0.182763 0.66895,-0.331401 0.71466,-0.798599 0.039,-0.398314 -0.0677,-0.686287 -0.34847,-0.940711 -0.35624,-0.32281 -0.68927,-0.36667 -2.78423,-0.36667 h -2.37959 l -0.0583,0.916805 c -0.0924,1.453725 -0.11892,1.43633 2.16898,1.424353 1.11564,-0.0058 2.32476,-0.111671 2.68694,-0.235178 z m 10.30595,-0.611512 c 0.80777,-0.56578 0.40509,-1.776682 -0.59083,-1.776682 -0.42311,0 -0.87244,0.534364 -0.87244,1.037552 0,0.378706 0.5955,1.032012 0.94071,1.032012 0.0575,0 0.29258,-0.131797 0.52256,-0.292882 z m -23.48253,-0.259176 c 0.27318,-0.510435 0.24282,-0.87815 -0.10089,-1.221854 -0.44792,-0.447926 -1.15464,-0.366106 -1.509,0.174704 -0.28549,0.435713 -0.28549,0.504998 0,0.940711 0.386,0.589106 1.31858,0.650764 1.60989,0.106439 z m 11.91535,-9.061109 c 0.10328,-0.16507 0.13169,-0.523603 0.0631,-0.796738 -0.14027,-0.558905 -0.92381,-0.867301 -1.41799,-0.558105 -0.3813,0.238575 -0.49316,1.120883 -0.18863,1.487815 0.29512,0.355605 1.2915,0.269767 1.54349,-0.132972 z"
         id="path2148" />
    </g>
  </g>
</svg>
